<?xml version="1.0" encoding="utf-8"?>
<!-- Made by Synel - SVG Version: 6.00 Build 0)  -->
<svg version="1.1" id="Calque_1" xmlns="http://www.w3.org/2000/svg" xmlns:xlink="http://www.w3.org/1999/xlink" x="0px" y="0px"
	 viewBox="0 0 512 512" style="enable-background:new 0 0 512 512;" xml:space="preserve">
<style type="text/css">
	.st0{fill:#202020;}
	.st1{fill:url(#SVGID_1_);}
	.st2{fill:#EB4BBF;}
	.st3{fill:url(#SVGID_2_);}
	.st4{fill:url(#SVGID_3_);}
	.st5{fill:url(#SVGID_4_);}
	.st6{fill:url(#SVGID_5_);}
	.st7{fill:url(#SVGID_6_);}
	.st8{fill:#F05542;}
	.st9{fill:#25B39E;}
	.st10{fill:#4BC0EC;}
	.st11{fill:#F8B84E;}
	.st12{fill:none;}
	.st13{fill:#6FEB4B;}
	.st14{fill:#FFA800;stroke:#557E00;stroke-width:3;stroke-miterlimit:10;}
	.st15{fill:#FFA800;stroke:#557E00;stroke-width:2;stroke-miterlimit:10;}
	.st16{fill:#AF40F9;}
</style>
<circle class="st0" cx="256" cy="256" r="256.5"/>
<linearGradient id="SVGID_1_" gradientUnits="userSpaceOnUse" x1="71.8977" y1="269.2769" x2="168.8977" y2="269.2769" gradientTransform="matrix(0.9115 -0.123 0.1338 0.991 5.1133 16.5463)">
	<stop  offset="0" style="stop-color:#000000"/>
	<stop  offset="0.1906" style="stop-color:#FFFFFF"/>
	<stop  offset="0.8282" style="stop-color:#FFFFFF"/>
	<stop  offset="1" style="stop-color:#000000"/>
</linearGradient>
<polygon class="st1" points="195.9,268.6 107.5,280.5 105.9,268.6 194.3,256.7 "/>
<path class="st2" d="M72.9,242.8c-19.9,0-36,16.1-36,36s16.1,36,36,36s36-16.1,36-36S92.8,242.8,72.9,242.8z M72.9,302.8
	c-13.3,0-24-10.7-24-24s10.7-24,24-24s24,10.7,24,24S86.1,302.8,72.9,302.8z"/>
<linearGradient id="SVGID_2_" gradientUnits="userSpaceOnUse" x1="144.8907" y1="84.0101" x2="225.8907" y2="84.0101" gradientTransform="matrix(0.3254 -0.1243 0.357 0.9341 89.3508 29.1912)">
	<stop  offset="0" style="stop-color:#000000"/>
	<stop  offset="0.1906" style="stop-color:#FFFFFF"/>
	<stop  offset="0.8282" style="stop-color:#FFFFFF"/>
	<stop  offset="1" style="stop-color:#000000"/>
</linearGradient>
<polygon class="st3" points="195,85.2 168.6,95.3 164.3,84 190.7,74 "/>
<linearGradient id="SVGID_3_" gradientUnits="userSpaceOnUse" x1="303.193" y1="228.1797" x2="384.193" y2="228.1797" gradientTransform="matrix(0.8018 -0.2491 0.2967 0.955 3.4726 94.5062)">
	<stop  offset="0" style="stop-color:#000000"/>
	<stop  offset="0.1906" style="stop-color:#FFFFFF"/>
	<stop  offset="0.8282" style="stop-color:#FFFFFF"/>
	<stop  offset="1" style="stop-color:#000000"/>
</linearGradient>
<polygon class="st4" points="381,222.4 316.1,242.6 312.5,231.1 377.4,211 "/>
<linearGradient id="SVGID_4_" gradientUnits="userSpaceOnUse" x1="243.624" y1="366.5879" x2="324.624" y2="366.5879" gradientTransform="matrix(0.13 0.6979 -0.9831 0.1831 596.3992 79.9126)">
	<stop  offset="0" style="stop-color:#000000"/>
	<stop  offset="0.1906" style="stop-color:#FFFFFF"/>
	<stop  offset="0.8282" style="stop-color:#FFFFFF"/>
	<stop  offset="1" style="stop-color:#000000"/>
</linearGradient>
<polygon class="st5" points="272.3,374.7 261.8,318.2 273.6,316 284.1,372.5 "/>
<linearGradient id="SVGID_5_" gradientUnits="userSpaceOnUse" x1="99.9045" y1="326.3857" x2="180.9045" y2="326.3857" gradientTransform="matrix(0.9999 -0.9014 0.6696 0.7428 -188.8661 218.3558)">
	<stop  offset="0" style="stop-color:#000000"/>
	<stop  offset="0.1906" style="stop-color:#FFFFFF"/>
	<stop  offset="0.8282" style="stop-color:#FFFFFF"/>
	<stop  offset="1" style="stop-color:#000000"/>
</linearGradient>
<polygon class="st6" points="214.6,302.2 133.6,375.2 125.5,366.3 206.5,293.3 "/>
<linearGradient id="SVGID_6_" gradientUnits="userSpaceOnUse" x1="152.831" y1="149.5084" x2="233.831" y2="149.5084" gradientTransform="matrix(0.1869 1.1519 -0.9871 0.1602 349.1301 -98.174)">
	<stop  offset="0" style="stop-color:#000000"/>
	<stop  offset="0.1906" style="stop-color:#FFFFFF"/>
	<stop  offset="0.8282" style="stop-color:#FFFFFF"/>
	<stop  offset="1" style="stop-color:#000000"/>
</linearGradient>
<polygon class="st7" points="239.3,196.1 224.2,102.8 236,100.9 251.2,194.2 "/>
<path class="st8" d="M224.9,31.8c-19.9,0-36,16.1-36,36s16.1,36,36,36s36-16.1,36-36S244.8,31.8,224.9,31.8z M224.9,91.8
	c-13.3,0-24-10.7-24-24s10.7-24,24-24s24,10.7,24,24S238.1,91.8,224.9,91.8z"/>
<path class="st9" d="M412,171c-19.9,0-36,16.1-36,36s16.1,36,36,36s36-16.1,36-36S431.9,171,412,171z M412,231
	c-13.3,0-24-10.7-24-24s10.7-24,24-24s24,10.7,24,24S425.3,231,412,231z"/>
<path class="st10" d="M104.9,357.4c-19.9,0-36,16.1-36,36s16.1,36,36,36s36-16.1,36-36S124.8,357.4,104.9,357.4z M104.9,417.4
	c-13.3,0-24-10.7-24-24s10.7-24,24-24s24,10.7,24,24S118.1,417.4,104.9,417.4z"/>
<circle class="st11" cx="256" cy="256" r="64"/>
<path class="st12" d="M149,119v2.2c6-4.4,9.9-11.4,9.9-19.4c0-13.3-10.7-24-24-24s-24,10.7-24,24c0,9.7,5.8,18.1,14.1,21.9V119H149z
	"/>
<path class="st13" d="M134.9,65.8c-19.9,0-36,16.1-36,36s16.1,36,36,36s36-16.1,36-36S154.8,65.8,134.9,65.8z M134.9,125.8
	c-13.3,0-24-10.7-24-24s10.7-24,24-24s24,10.7,24,24S148.1,125.8,134.9,125.8z"/>
<g>
	<path class="st12" d="M273.8,162.6c5.4,0.3,10.6,0.7,15.7,1l3.3-47.2l-18.9,0.6L273.8,162.6z"/>
	<polygon class="st12" points="146.6,160 146.6,164.6 164.8,164.2 166.9,117.6 147.5,117.7 147.5,160 	"/>
	<path class="st14" d="M126.6,99.2c0.2,6.1,0.3,12.3,0.5,18.6h20.4v0l19.4-0.1l-2.2,46.6l-18.2,0.4l0-4.6h-18.3
		c0.4,14.3,0.9,28.7,1.4,43.5c6.2,0,11.8,0,16.6,0.1c0-7.9,0.1-15.9,0.3-24.2l17.9,0.9l2.3-1.8c1.6-1.2,3.8-2.9,6.6-5.1
		c2.8-2.2,5.4-4.4,7.7-6.4l5.6-49.9l-18.4-19.2L126.6,99.2z"/>
	<path class="st14" d="M246.9,98.9l-53,0.9c2.7,37.3,4.8,71.9,6.1,103.7l6.1,0.1c4.1,0,9.9,0,17.5,0c7.6,0,14.9-0.1,21.9-0.3
		c0.2-6.6,0.3-13.3,0.5-20.2c-11.4,0.9-21.7,1.5-31.1,1.8c-0.3-3.5-0.5-8.5-0.6-15.1l26.1-1.5l-0.8-18.8c-10,1.5-18.6,2.8-26,3.7
		l-0.9-34c9.6,0.6,20.5,1.2,32.9,1.8C246.2,113.7,246.6,106.3,246.9,98.9z"/>
	<path class="st14" d="M312.2,116.1l-18-18.6c-12.4,0.4-25.7,1.1-40.1,1.9c1.6,36.1,2.7,70.7,3.3,103.9c4.4,0.2,10.4,0.2,17.8,0
		c-0.5-9.9-0.9-18.3-1.3-25.3l3.2,0.1l1.5,3.5c1.1,2.2,2.8,5.4,4.9,9.5c2.2,4.1,4.4,8.1,6.6,11.8l19.6,0.8l1.2-17.5l-1.5-0.3
		c-1.1-0.1-2.5-0.1-4.3-0.2c-1.8,0-3.7,0-6,0.1l-6.5-8.7l14.5-12.5L312.2,116.1z M289.5,163.7c-5.1-0.3-10.4-0.7-15.7-1l0.1-45.6
		l18.9-0.6L289.5,163.7z"/>
	<path class="st14" d="M319.4,99.3c0.3,7.7,0.8,15.7,1.3,23.9c7.3-0.3,13.1-0.5,17.5-0.6c0.4,35.5,0.8,62.5,1,81
		c5.7-0.2,11.4-0.3,17.2-0.4c0.7-26.5,1.4-53.5,2-81l18.6,0.1l1.2-23.8L319.4,99.3z"/>
	<path class="st14" d="M145.8,117.7l0.7,0v0H128c0.3,13.9,0.7,28,1.1,42.3h16.6L145.8,117.7z"/>
</g>
<path class="st13" d="M134.9,125.8c-3.5,0-6.9-0.8-9.9-2.1v12.7c3.1,0.9,6.4,1.4,9.9,1.4c5,0,9.8-1,14.1-2.9v-13.7
	C145,124.1,140.2,125.8,134.9,125.8z"/>
<path class="st15" d="M393.9,427.8c-1.3,1.7-2.7,3.3-4.4,5c-1.6,1.7-3,3-4,3.9l-1.4,1.2l-14.9,1.1l-12.1-10.7l-1.8-34.8
	c1.7-2.2,3.5-4.4,5.4-6.7c1.9-2.3,3.4-4,4.5-5.2l1.6-1.7l18.4,0.8l12.1,11.5l-3.3,18.7l-24.8,1.3c0.1,5,0.2,9.9,0.2,14.7
	c2.3,0,4.5-0.1,6.5-0.2c2-0.1,3.5-0.3,4.4-0.4l1.3-0.1l-0.6-8.1l13.4-0.8L393.9,427.8z M369,403.1l14.4-1.4l0.7-9l-15.2,0.4
	L369,403.1z"/>
<path class="st15" d="M433.4,395.5c-2.8-0.3-5.7-0.5-8.7-0.8c-1.3,1.2-2.7,2.4-3.9,3.7c-1.3,1.2-2.2,2.2-2.8,2.8l-0.9,1
	c-0.4,11.4-0.6,23.2-0.7,35.3h-13l-0.8-56.7h15.3l-0.2,7c2.3-2.2,4.6-4.5,6.9-6.8c3-0.2,6.2-0.4,9.6-0.5
	C434,385.3,433.8,390.3,433.4,395.5z"/>
<path class="st12" d="M308.9,407.4c0-13.3-10.7-24-24-24s-24,10.7-24,24c0,1.6,0.2,3.1,0.4,4.6h47.1
	C308.7,410.5,308.9,409,308.9,407.4z"/>
<path class="st16" d="M284.9,371.4c-19.9,0-36,16.1-36,36s16.1,36,36,36s36-16.1,36-36S304.8,371.4,284.9,371.4z M284.9,431.4
	c-13.3,0-24-10.7-24-24s10.7-24,24-24s24,10.7,24,24S298.1,431.4,284.9,431.4z"/>
<g>
	<path class="st12" d="M277.4,428.2c5-0.6,8.7-1.1,11-1.4c0.2-5.8,0.4-12.1,0.6-18.9l-12.9-0.2C276.3,414.4,276.7,421.3,277.4,428.2
		z"/>
	<path class="st15" d="M306.5,428.1c-3.6-0.5-6.1-1-7.4-1.4l0.3-4.7c0.2-3.1,0.6-7.7,1.1-14c0.5-6.3,1.2-12.6,1.9-18.9
		c-3.5-3-7.3-6.2-11.4-9.6h-22.5c0.2,5,0.5,9.2,0.9,12.5l20.7-1l-0.6,6.6l-2.1-0.2c-1.4-0.2-3.3-0.4-5.7-0.8
		c-2.4-0.3-4.5-0.6-6.4-0.8c-4.8,3.3-8.9,6.2-12.4,8.8c0.9,9.9,1.6,18.6,2.2,26.2c4.8,2.9,9.2,5.9,13.1,9.1l18.7-4.2l1.7,1l7-5
		L306.5,428.1z M288.4,426.7c-2.4,0.3-6,0.8-11,1.4c-0.6-6.9-1.1-13.8-1.2-20.5l12.9,0.2C288.8,414.7,288.6,421,288.4,426.7z"/>
</g>
<path class="st16" d="M308.4,412c-2.1,11-11.9,19.4-23.6,19.4s-21.4-8.3-23.6-19.4H258v19.3c6.6,7.4,16.2,12.1,26.9,12.1
	c9.8,0,18.6-3.9,25.1-10.2V412H308.4z"/>
<path class="st15" d="M351.6,437.8l-15.4-0.4c-1.6-3.6-3.2-7.4-4.9-11.5c-1.7-4.1-3-7.2-3.8-9.6l-1.3-3.5l-0.4,24.6l-11.9,0.1
	c-0.1-23.3-0.6-49.6-1.5-78.8l15.6,0.1l-1.3,39.9c3.6-6.8,6.7-13.2,9.4-19.4c4.5,1.4,8.9,3.2,13.2,5.3c-2,2.4-4.3,5.3-7.1,8.8
	c-2.7,3.5-4.9,6.4-6.7,8.7l-2.6,3.5c3.3,7.1,6.6,13.6,9.9,19.6l9.6-0.3L351.6,437.8z"/>
<path class="st15" d="M215.5,358.8c1.7,8.6,3.6,17.3,5.6,26s3.6,15.2,4.7,19.5l1.7,6.4c1.8-7.7,3.7-15.9,5.9-24.5
	c2.1-8.7,3.8-15.4,5.1-20.3l1.8-7.2l14.5,1.2c-0.2,13.1-0.3,26.2-0.3,39.2c0,13,0,22.7,0.1,29.1l0.1,9.6l-13-0.2l-0.4-38.7
	l-7.5,27.6l-13-0.3l-7.4-27.1c0.1,6.1,0.1,12.1,0.1,17.8c0,5.7,0,10.6-0.1,14.6l-0.1,6.1l-13.5,0.3c0.3-12.1,0.4-24.6,0.5-37.6
	c0.1-13,0.1-22.9,0.1-29.9v-10.5L215.5,358.8z"/>
</svg>
